<?xml version="1.0" encoding="utf-8"?>
<!-- Generator: Adobe Illustrator 21.0.2, SVG Export Plug-In . SVG Version: 6.00 Build 0)  -->
<svg version="1.1" id="Layer_1" xmlns="http://www.w3.org/2000/svg" xmlns:xlink="http://www.w3.org/1999/xlink" x="0px" y="0px"
	 viewBox="0 0 500 500" style="enable-background:new 0 0 500 500;" xml:space="preserve">
<style type="text/css">
	.st0{fill:#161616;}
	.st1{fill:#F9F9F9;}
</style>
<g>
	
		<rect x="16.8" y="200.8" transform="matrix(0.6943 -0.7197 0.7197 0.6943 -103.4962 256.359)" class="st0" width="466.5" height="98.4"/>
	
		<rect x="16.8" y="200.8" transform="matrix(0.7197 0.6943 -0.6943 0.7197 243.641 -103.4962)" class="st0" width="466.5" height="98.4"/>
	<circle class="st1" cx="250" cy="250" r="45"/>
	<polygon class="st0" points="266.3,275.7 281.5,304.2 249.2,303.1 216.9,302.1 233.9,274.6 251,247.1 	"/>
	<polygon class="st0" points="266,209.1 281.8,237.3 249.5,237 217.1,236.6 233.6,208.7 250.1,180.9 	"/>
	<polygon class="st0" points="286.6,245.4 319,245.6 302.7,273.5 286.4,301.4 270.3,273.4 254.3,245.3 	"/>
	<polygon class="st0" points="212.2,245.4 244.5,245.6 228.2,273.5 211.9,301.4 195.9,273.4 179.8,245.3 	"/>
</g>
</svg>
