<?xml version="1.0" encoding="utf-8"?>
<!-- Generator: Adobe Illustrator 19.2.0, SVG Export Plug-In . SVG Version: 6.00 Build 0)  -->
<svg version="1.1" id="Layer_1" xmlns="http://www.w3.org/2000/svg" xmlns:xlink="http://www.w3.org/1999/xlink" x="0px" y="0px"
	 viewBox="0 0 500 500" style="enable-background:new 0 0 500 500;" xml:space="preserve">
<style type="text/css">
	.st0{fill:#848484;}
	.st1{fill:#C9C9C9;}
	.st2{fill:#7C7C7C;}
	.st3{fill:#666666;}
	.st4{fill:none;}
	.st5{fill:#F9F9F9;}
	.st6{font-family:'MyriadPro-Regular';}
	.st7{font-size:44px;}
</style>
<path class="st0" d="M366.3,268h8.5c-3.6,19.3-11.8,36.9-23.2,51.8C329.1,349.1,293.8,368,254,368c-40.7,0-76.8-19.8-99.2-50.3
	c-10.6-14.5-18.2-31.4-21.6-49.7h14.5c2.4,0,4.3-1.9,4.3-4.3v-29.3c0-2.4-1.9-4.3-4.3-4.3h-15.8c2.6-21.4,10.7-41.2,22.9-57.7
	c22.4-30.5,58.5-50.3,99.2-50.3c42.7,0,80.4,21.8,102.4,54.9c10.4,15.6,17.3,33.7,19.7,53.1h-9.8c-2.4,0-4.3,1.9-4.3,4.3v29.3
	C362,266.1,363.9,268,366.3,268z"/>
<path class="st0" d="M215,245c0,36.2-25.9,66.3-60.2,72.7c-4.5,0.9-9.1,1.3-13.8,1.3c-22.8,0-43.1-10.3-56.7-26.5
	c-6-7.2-10.7-15.5-13.6-24.5h77c2.4,0,4.3-1.9,4.3-4.3v-29.3c0-2.4-1.9-4.3-4.3-4.3H68.5c1.9-9,5.4-17.5,10.2-25
	c13.2-20.5,36.1-34,62.3-34c4.7,0,9.3,0.4,13.8,1.3C189.1,178.7,215,208.8,215,245z"/>
<path class="st1" d="M117.7,268c-6.2,13-18.6,22.4-33.4,24.5c-2,0.3-4.1,0.5-6.3,0.5c-17.5,0-32.6-10.2-39.7-25H117.7z"/>
<path class="st1" d="M38.3,230c7.1-14.8,22.2-25,39.7-25c0.2,0,0.5,0,0.7,0c17.2,0.3,32,10.4,39,25H38.3z"/>
<path class="st2" d="M444.5,268c-2.8,10.6-7.9,20.4-14.8,28.5C416.1,312.7,395.8,323,373,323c-7.4,0-14.6-1.1-21.4-3.2
	c-30.4-9.2-52.6-37.4-52.6-70.8c0-35.2,24.5-64.6,57.4-72.1c5.3-1.2,10.9-1.9,16.6-1.9c26.1,0,49.1,13.5,62.3,34
	c4.1,6.4,7.3,13.4,9.3,21h-78.2c-2.4,0-4.3,1.9-4.3,4.3v29.3c0,2.4,1.9,4.3,4.3,4.3h78.1V268z"/>
<path class="st2" d="M398.5,230c7.6-12.4,21.2-20.7,36.8-21c0.2,0,0.5,0,0.7,0c15.9,0,29.8,8.4,37.5,21H398.5z"/>
<path class="st2" d="M477.4,268c-6.1,16.9-22.3,29-41.4,29c-2.1,0-4.2-0.2-6.3-0.5c-16.3-2.3-29.6-13.5-35.1-28.5H477.4z"/>
<path class="st3" d="M328.5,260.3h5.7c-2.4,12.8-7.8,24.5-15.4,34.4c-14.9,19.4-38.4,31.9-64.8,31.9c-27,0-51-13.1-65.8-33.4
	c-7.1-9.6-12.1-20.8-14.4-33h9.6c1.6,0,2.9-1.3,2.9-2.9v-19.5c0-1.6-1.3-2.9-2.9-2.9H173c1.7-14.2,7.1-27.3,15.2-38.3
	c14.8-20.2,38.8-33.4,65.8-33.4c28.3,0,53.3,14.5,67.9,36.4c6.9,10.3,11.5,22.3,13.1,35.3h-6.5c-1.6,0-2.9,1.3-2.9,2.9v19.5
	C325.7,259,326.9,260.3,328.5,260.3z"/>
<rect x="161.1" y="228.1" class="st4" width="208.9" height="41.9"/>
<text transform="matrix(1 0 0 1 161.1099 259.3384)" class="st5 st6 st7">Burncloud</text>
</svg>
