<?xml version="1.0" encoding="utf-8"?>
<!-- Generator: Adobe Illustrator 19.2.0, SVG Export Plug-In . SVG Version: 6.00 Build 0)  -->
<svg version="1.1" id="Layer_1" xmlns="http://www.w3.org/2000/svg" xmlns:xlink="http://www.w3.org/1999/xlink" x="0px" y="0px"
	 viewBox="0 0 500 500" style="enable-background:new 0 0 500 500;" xml:space="preserve">
<style type="text/css">
	.st0{fill:#B7B7B7;}
	.st1{fill:none;}
	.st2{font-family:'MyriadPro-Regular';}
	.st3{font-size:70.3125px;}
	.st4{fill:#FFFFFF;}
	.st5{font-size:35.1562px;}
</style>
<path class="st0" d="M77.6,192.3c11.8,0,22.9,3.6,32,9.8v-20.9c-9.7-4.6-20.6-7.1-32-7.1C35.8,174,2,207.8,2,249.6
	s33.8,75.6,75.6,75.6c11.4,0,22.3-2.5,32-7.1v-20.9c-9.1,6.2-20.2,9.8-32,9.8c-31.6,0-57.3-25.7-57.3-57.3S45.9,192.3,77.6,192.3z"
	/>
<circle class="st0" cx="77.2" cy="249.9" r="43.6"/>
<rect x="130" y="219" class="st1" width="367" height="59.1"/>
<text transform="matrix(1 0 0 1 129.9688 268.9209)" class="st0 st2 st3">mmunicator</text>
<rect x="381.7" y="276" class="st1" width="109.7" height="35.2"/>
<text transform="matrix(1 0 0 1 381.6875 300.9131)" class="st4 st2 st5">Award</text>
</svg>
