<?xml version="1.0" encoding="utf-8"?>
<!-- Generator: Adobe Illustrator 21.0.2, SVG Export Plug-In . SVG Version: 6.00 Build 0)  -->
<svg version="1.1" id="Layer_1" xmlns="http://www.w3.org/2000/svg" xmlns:xlink="http://www.w3.org/1999/xlink" x="0px" y="0px"
	 viewBox="0 0 500 500" style="enable-background:new 0 0 500 500;" xml:space="preserve">
<style type="text/css">
	.st0{fill:#3F3F3F;}
	.st1{fill:none;}
	.st2{font-family:'SegoeUIHistoric';}
	.st3{font-size:114.9677px;}
	.st4{font-size:33.5323px;}
</style>
<g>
	<path class="st0" d="M106.8,235.1c18.3-13.1,43-10.5,58.3,5c-1-2.1-2.2-4.1-3.6-6c-14.5-20.2-42.6-24.9-62.8-10.4
		c-20.2,14.5-24.9,42.6-10.4,62.8c1.4,1.9,2.9,3.7,4.5,5.4C82.9,272.4,88.5,248.2,106.8,235.1z"/>
	<rect x="-6" y="214.5" class="st1" width="594" height="102.2"/>
	<text transform="matrix(1 0 0 1 -6 299.6357)" class="st0 st2 st3">H   RIZON</text>
	<rect x="366.2" y="316.9" class="st1" width="135.5" height="28.6"/>
	<text transform="matrix(1 0 0 1 366.2432 341.6943)" class="st0 st2 st4">AWARD</text>
</g>
</svg>
