<?xml version="1.0" encoding="utf-8"?>
<!-- Generator: Adobe Illustrator 19.2.0, SVG Export Plug-In . SVG Version: 6.00 Build 0)  -->
<svg version="1.1" id="Layer_1" xmlns="http://www.w3.org/2000/svg" xmlns:xlink="http://www.w3.org/1999/xlink" x="0px" y="0px"
	 viewBox="0 0 500 500" style="enable-background:new 0 0 500 500;" xml:space="preserve">
<style type="text/css">
	.st0{fill:#4F4F4F;}
	.st1{fill:#0FD9ED;}
	.st2{fill:#474747;}
	.st3{fill:none;}
	.st4{font-family:'MyriadPro-Regular';}
	.st5{font-size:67.0345px;}
	.st6{fill:#FFFFFF;}
</style>
<g>
	<path class="st0" d="M256,146.4c0,2.6,1.8,4.8,4.3,5.3c24.5,4.8,138.5,29.3,0.5,46.6c-147,18.5-78.9,42-72.8,44
		c0.3,0.1,0.5,0.2,0.8,0.2l173.7,27.8c0.7,0.1,1.5,0.4,2.1,0.8c5.3,3.5,27.7,20.7-29.7,29.3c-62.8,9.4-200.5,28.1-206.4,28.9
		c-0.1,0-0.3,0-0.4,0.1c-3.6,0.8-52.9,12,19,29.7c69.9,17.1,235.7,33,256,34.9c1.3,0.1,2.6,0.7,3.5,1.7l25.1,27.3
		c4.1,4.5,11.4-0.3,8.9-5.8l-176.8-399c-1.9-4.2-7.8-4.3-9.8-0.2L60.6,417c-2.7,5.6,4.6,10.5,8.8,6l50.4-53.9
		c2.4-2.6,9.9-5.5,6.8-7.2c-11.7-6.6-44.8-25.9-3-40c0.6-0.2,6.8-1.8,7.4-1.9l209.4-28c0.3,0,7.2-1.8,7.4-1.9
		c3.1-0.9,16.5-9.8-7.3-15.7c-0.2,0-0.3-0.1-0.5-0.1L181.4,250c-0.2,0-0.4-0.1-0.7-0.1c-4.7-1.3-49.1-26.7,7.6-47.4
		c0.5-0.2,7.9-1.8,8.4-1.9l109.6-16.3c0.2,0,0.3-0.1,0.4-0.1c2.4-0.6,21.6-6.1-0.3-13c-18.1-5.7-46.2-10.8-57.9-12.8
		c-3-0.5-5-3.4-4.4-6.3l1.3-6.7C246.6,138.8,256.1,139.8,256,146.4L256,146.4z"/>
	<circle class="st1" cx="259.6" cy="118.8" r="23.3"/>
	<path class="st2" d="M238.7,108.5c0,0-0.5,3.8,5.1,5.6s8.4,1.9,8.4,1.9s6.5,2.8,5.6,4.7c-0.9,1.9-6.1,4.2-2.3,7
		c3.7,2.8,9.3,2.8,9.3,2.8s2.8,2.8,2.8,5.6s2.8,2.8,1.9-1.9s-0.9-8.4-0.9-8.4l0.9-5.6c0,0-3.7-3.7-5.6-2.8c-1.9,0.9-4.7,0.9-4.7,0.9
		l-2.8-0.9c0,0-1.9-3.7,0-4.7c1.9-0.9,4.7-5.6,4.7-5.6s0-6.5-4.7-5.6c-4.7,0.9-9.3,4.7-9.3,2.8s-4.7-1.1-4.7-1.1
		S238.8,108,238.7,108.5z"/>
	<path class="st2" d="M279,106c0,0-4.1,1.2-3.1,4s-0.9,4.7,1.9,4.7s2.8,2.8,2.8,2.8s1.9,7.4,0,9.3c-1.9,1.9-0.5,3.2-0.5,3.2
		S286.8,118.8,279,106z"/>
	<rect x="68" y="435.3" class="st3" width="432" height="78.2"/>
	<text transform="matrix(1 0 0 1 219.9813 485.4394)" class="st0 st4 st5"> AWARD</text>
	<polygon class="st0" points="62.6,435.3 85.3,435.3 91.4,458.8 93.9,449.3 89.9,435.3 110.4,435.3 114.6,458.8 119.9,435.3 
		131.3,435.3 115.3,485.4 103.6,485.4 97.8,462.3 90.4,485.4 78.9,485.4 	"/>
	<path class="st0" d="M170.7,455.8l2-20.5h-34.5l1.8,50.2h29.8l2.1-9.9l-3.4,0.8l-9.4,0.5l0.2-7.4c0,0,8.8,0.2,9.8,0.7
		c0,0,1.3-8.6,2.2-9.1h-11.8l0.5-6.3L170.7,455.8z"/>
	<g>
		<path class="st0" d="M180.9,485.3l-2.3-50.2c0,0,26-3.5,34.3,2.5s7,16,7,16s1.3,8.8-7.5,13.5c0,0,6.8,2.8,4.4,11.8
			c-2.4,9-23.8,7.8-23.8,7.8L180.9,485.3z"/>
		<path class="st6" d="M200.2,451.3v9.7c0,0,6.5,0.7,6.7-4.8S200.2,451.3,200.2,451.3z"/>
		<path class="st6" d="M200.2,469.6v9.7c0,0,6.5,0.7,6.7-4.8S200.2,469.6,200.2,469.6z"/>
	</g>
</g>
</svg>
