<?xml version="1.0" encoding="utf-8"?>
<!-- Generator: Adobe Illustrator 19.2.0, SVG Export Plug-In . SVG Version: 6.00 Build 0)  -->
<svg version="1.1" id="Layer_1" xmlns="http://www.w3.org/2000/svg" xmlns:xlink="http://www.w3.org/1999/xlink" x="0px" y="0px"
	 viewBox="0 0 500 500" style="enable-background:new 0 0 500 500;" xml:space="preserve">
<style type="text/css">
	.st0{fill:none;stroke:#FFFFFF;stroke-width:20;stroke-miterlimit:10;}
</style>
<g>
	<path class="st0" d="M153.5,300.6h-51.9c-10.1,0-18.3-8.2-18.3-18.3V185c0-10.1,8.2-18.3,18.3-18.3h51.9c10.1,0,18.3,8.2,18.3,18.3
		v97.3C171.8,292.2,163.6,300.6,153.5,300.6z"/>
	<path class="st0" d="M127.5,438.1L127.5,438.1c-10.1,0-18.3-8.2-18.3-18.3v-97.3c0-10.1,8.2-18.3,18.3-18.3l0,0
		c10.1,0,18.3,8.2,18.3,18.3v97.3C145.8,429.9,137.6,438.1,127.5,438.1z"/>
	<path class="st0" d="M140.6,212.7h-26.2c-2.9,0-5.1-2.3-5.1-5.1v-3.6c0-2.9,2.3-5.1,5.1-5.1h26.2c2.9,0,5.1,2.3,5.1,5.1v3.6
		C145.8,210.3,143.5,212.7,140.6,212.7z"/>
	<path class="st0" d="M253.2,300.6h-51.9c-10.1,0-18.3-8.2-18.3-18.3V185c0-10.1,8.2-18.3,18.3-18.3h51.9
		c10.1,0,163.5-138.1,163.5-128V418C416.7,427.9,263.3,300.6,253.2,300.6z"/>
</g>
</svg>
