<?xml version="1.0" encoding="utf-8"?>
<!-- Generator: Adobe Illustrator 19.2.0, SVG Export Plug-In . SVG Version: 6.00 Build 0)  -->
<svg version="1.1" id="Layer_1" xmlns="http://www.w3.org/2000/svg" xmlns:xlink="http://www.w3.org/1999/xlink" x="0px" y="0px"
	 viewBox="0 0 500 500" style="enable-background:new 0 0 500 500;" xml:space="preserve">
<style type="text/css">
	.st0{stroke:#FFFFFF;stroke-miterlimit:10;}
	.st1{fill:none;stroke:#FFFFFF;stroke-width:14;stroke-miterlimit:10;}
</style>
<rect x="888.1" y="20.5" class="st0" width="500" height="500"/>
<g>
	<path class="st1" d="M408.8,314.1H79.5c-9.1,0-16.4-7.3-16.4-16.4V114.5c0-9.1,7.3-16.4,16.4-16.4h329.3c9.1,0,16.4,7.3,16.4,16.4
		v183.2C425.2,306.8,417.9,314.1,408.8,314.1z"/>
	<path class="st1" d="M459.6,346.9H24.4c-9.1,0-16.4-7.3-16.4-16.4l0,0c0-9.1,7.3-16.4,16.4-16.4h435.2c9.1,0,16.4,7.3,16.4,16.4
		l0,0C476,339.6,468.7,346.9,459.6,346.9z"/>
	<circle class="st1" cx="130.1" cy="168.3" r="10.9"/>
	<circle class="st1" cx="242" cy="200.1" r="10.9"/>
	<circle class="st1" cx="338.4" cy="257.2" r="10.9"/>
	<circle class="st1" cx="161.8" cy="262.5" r="10.9"/>
	<polyline class="st1" points="141.4,168 181.6,168 208.1,199.7 231.4,199.7 	"/>
	<polyline class="st1" points="173.2,262.2 199.6,262.2 219.8,227.3 242,227.3 242,211.4 	"/>
	<polyline class="st1" points="253,199.8 273.9,199.5 305.5,256.9 327.8,256.9 	"/>
	<rect x="290.4" y="129.9" class="st1" width="95.6" height="9.5"/>
	<rect x="290.4" y="147.9" class="st1" width="95.6" height="9.5"/>
</g>
</svg>
