<?xml version="1.0" encoding="utf-8"?>
<!-- Generator: Adobe Illustrator 19.2.0, SVG Export Plug-In . SVG Version: 6.00 Build 0)  -->
<svg version="1.1" id="Layer_1" xmlns="http://www.w3.org/2000/svg" xmlns:xlink="http://www.w3.org/1999/xlink" x="0px" y="0px"
	 viewBox="0 0 500 500" style="enable-background:new 0 0 500 500;" xml:space="preserve">
<style type="text/css">
	.st0{fill:none;stroke:#FFFFFF;stroke-width:12;stroke-miterlimit:10;}
</style>
<g>
	<path class="st0" d="M397.3,478.1h-311c-8.6,0-15.5-6.9-15.5-15.5V29.1c0-8.6,6.9-15.5,15.5-15.5h311c8.6,0,15.5,6.9,15.5,15.5
		v433.5C412.8,471.1,405.9,478.1,397.3,478.1z"/>
	<path class="st0" d="M397.3,129h-311c-8.6,0-15.5-6.9-15.5-15.5V34.1c0-8.6,6.9-15.5,15.5-15.5h311c8.6,0,15.5,6.9,15.5,15.5v79.4
		C412.8,122.1,405.9,129,397.3,129z"/>
	<path class="st0" d="M397.3,471.9h-311c-8.6,0-15.5-6.9-15.5-15.5v-36c0-8.6,6.9-15.5,15.5-15.5h311c8.6,0,15.5,6.9,15.5,15.5v36
		C412.8,464.9,405.9,471.9,397.3,471.9z"/>
	<path class="st0" d="M279.7,287.3h-171c-8.6,0-15.5-6.9-15.5-15.5l0,0c0-8.6,6.9-15.5,15.5-15.5h171c8.6,0,15.5,6.9,15.5,15.5l0,0
		C295.2,280.4,288.2,287.3,279.7,287.3z"/>
	<path class="st0" d="M291.6,338.6H96.7c-2,0-3.6-1.6-3.6-3.6v-23.9c0-2,1.6-3.6,3.6-3.6h194.9c2,0,3.6,1.6,3.6,3.6V335
		C295.2,337,293.6,338.6,291.6,338.6z"/>
	<path class="st0" d="M389.8,379.6h-74.4c-2,0-3.6-1.6-3.6-3.6V259.8c0-2,1.6-3.6,3.6-3.6h74.4c2,0,3.6,1.6,3.6,3.6V376
		C393.3,378,391.7,379.6,389.8,379.6z"/>
	<path class="st0" d="M292.9,379.6H95.4c-1.3,0-2.3-1-2.3-2.3v-26.4c0-1.3,1-2.3,2.3-2.3h197.4c1.3,0,2.3,1,2.3,2.3v26.4
		C295.2,378.6,294.1,379.6,292.9,379.6z"/>
	<path class="st0" d="M377.8,231h-51.3c-8.6,0-15.5-6.9-15.5-15.5V182c0-8.6,6.9-15.5,15.5-15.5h51.3c8.6,0,15.5,6.9,15.5,15.5v33.5
		C393.3,224.1,386.4,231,377.8,231z"/>
	<g>
		<circle class="st0" cx="306.3" cy="56.4" r="4.1"/>
		<circle class="st0" cx="348.3" cy="68.3" r="4.1"/>
		<circle class="st0" cx="384.5" cy="89.8" r="4.1"/>
		<circle class="st0" cx="318.2" cy="91.8" r="4.1"/>
		<polyline class="st0" points="310,56 325.7,56 335.6,68 344,68 		"/>
		<polyline class="st0" points="323,92 332.4,92 340,78 348,78 348,73 		"/>
		<polyline class="st0" points="352.2,67.9 360.2,67.6 372.2,89 380,89 		"/>
	</g>
	<g>
		<circle class="st0" cx="240.3" cy="58.4" r="4.1"/>
		<circle class="st0" cx="282.3" cy="70.3" r="4.1"/>
		<circle class="st0" cx="318.5" cy="91.8" r="4.1"/>
		<circle class="st0" cx="252.2" cy="93.8" r="4.1"/>
		<polyline class="st0" points="244,58 259.7,58 269.6,70 278,70 		"/>
		<polyline class="st0" points="257,94 266.4,94 274,80 282,80 282,75 		"/>
		<polyline class="st0" points="286.2,69.9 294.2,69.6 306.2,91 314,91 		"/>
	</g>
	<rect x="93.2" y="205" class="st0" width="201.9" height="9"/>
	<rect x="93.2" y="222" class="st0" width="201.9" height="9"/>
	<rect x="204.8" y="167" class="st0" width="90.3" height="9"/>
	<rect x="204.8" y="184" class="st0" width="90.3" height="9"/>
	<rect x="93.2" y="166.5" class="st0" width="90.3" height="9"/>
	<rect x="93.2" y="183.5" class="st0" width="90.3" height="9"/>
</g>
</svg>
